<?xml version="1.0" encoding="UTF-8"?>
<svg width="24px" height="24px" viewBox="0 0 24 24" version="1.1" xmlns="http://www.w3.org/2000/svg" xmlns:xlink="http://www.w3.org/1999/xlink">
    <!-- Generator: Sketch 52.5 (67469) - http://www.bohemiancoding.com/sketch -->
    <desc>Created with Sketch.</desc>
    <g id="设备治理" stroke="none" stroke-width="1" fill="none" fill-rule="evenodd">
        <g id="切图" transform="translate(-736.000000, -398.000000)" fill="#6F7E91">
            <g id="Group-6" transform="translate(736.000000, 276.000000)">
                <g id="Tree/Main/City" transform="translate(0.000000, 122.000000)">
                    <g id="市">
                        <path d="M18,7 C18.5522847,7 19,7.44771525 19,8 L19,19 L19.5,19 C19.7761424,19 20,19.2238576 20,19.5 C20,19.7761424 19.7761424,20 19.5,20 L4.5,20 C4.22385763,20 4,19.7761424 4,19.5 C4,19.2238576 4.22385763,19 4.5,19 L5,19 L5,8 C5,7.44771525 5.44771525,7 6,7 L7,7 L7,6 L9.7226499,4.18490007 C9.89059961,4.07293359 10.1094004,4.07293359 10.2773501,4.18490007 L13,6 L13,7 L15,7 C15,6.44771525 15.4477153,6 16,6 L17,6 C17.5522847,6 18,6.44771525 18,7 Z M8,9 L8,17 L9,17 L9,9 L8,9 Z M11,9 L11,17 L12,17 L12,9 L11,9 Z M16,9 L16,17 L17,17 L17,9 L16,9 Z" id="Combined-Shape" fill-rule="nonzero"></path>
                    </g>
                </g>
            </g>
        </g>
    </g>
</svg>
