<?xml version="1.0" standalone="no"?>
<!DOCTYPE svg PUBLIC "-//W3C//DTD SVG 1.1//EN" "http://www.w3.org/Graphics/SVG/1.1/DTD/svg11.dtd">
<svg  t="1669721768808" class="icon" viewBox="0 0 1024 1024" version="1.1" xmlns="http://www.w3.org/2000/svg" p-id="972" xmlns:xlink="http://www.w3.org/1999/xlink" width="32" height="32">
    <path d="M731.4944 722.3296c-14.6944 0-26.6752 11.9808-26.6752 26.6752s11.9808 26.6752 26.6752 26.6752 26.6752-11.9808 26.6752-26.6752-11.9808-26.6752-26.6752-26.6752z"  p-id="973"></path>
    <path d="M910.5408 724.3264l-68.1984-118.1184a49.38752 49.38752 0 0 0-42.7008-24.6272h-136.3968c-17.5616 0-33.9456 9.472-42.7008 24.6272l-68.1984 118.1184a49.5616 49.5616 0 0 0 0 49.3056l68.1984 118.1184a49.4336 49.4336 0 0 0 42.7008 24.6784h136.3968c17.5616 0 33.9456-9.472 42.7008-24.6784l68.1984-118.0672a49.408 49.408 0 0 0 0-49.3568z m-179.0464 107.2128c-45.5168 0-82.5344-37.0176-82.5344-82.5344s37.0176-82.5344 82.5344-82.5344 82.5344 37.0176 82.5344 82.5344-37.0176 82.5344-82.5344 82.5344zM584.2944 247.1424H405.4016c-42.752 0-77.3632-34.6624-77.3632-77.3632 0-42.752 34.6624-77.3632 77.3632-77.3632h178.8928c42.752 0 77.3632 34.6624 77.3632 77.3632 0.0512 42.752-34.6112 77.3632-77.3632 77.3632z" p-id="974"></path><path d="M733.2864 147.456h-22.3232c1.536 6.5024 2.4064 13.2608 2.4064 20.224v22.4256c0 57.9072-46.9504 104.8576-104.8576 104.8576h-227.328c-57.9072 0-104.8576-46.9504-104.8576-104.8576v-22.4256c0-6.9632 0.8704-13.7216 2.4064-20.224h-22.3232c-71.2192 0-129.1776 57.9584-129.1776 129.1776v511.488c0 71.2192 57.9584 129.1776 129.1776 129.1776h317.6448L495.616 781.4656a65.0496 65.0496 0 0 1 0-64.9216l89.8048-155.5456c11.5712-20.0192 33.1264-32.4608 56.2176-32.4608h179.6096c15.2576 0 29.7472 5.4272 41.216 14.848v-266.752c0.0512-71.2192-57.9072-129.1776-129.1776-129.1776zM427.4688 707.0208H342.8864c-18.0224 0-32.6656-14.592-32.6656-32.6656 0-18.0224 14.592-32.6656 32.6656-32.6656h84.5824c18.0224 0 32.6656 14.592 32.6656 32.6656s-14.6432 32.6656-32.6656 32.6656z m225.6384-225.28H342.8864c-18.0224 0-32.6656-14.592-32.6656-32.6656s14.592-32.6656 32.6656-32.6656h310.2208c18.0224 0 32.6656 14.592 32.6656 32.6656s-14.6432 32.6656-32.6656 32.6656z" p-id="975">
    </path>
</svg>